<?xml version="1.0" standalone="no"?><!DOCTYPE svg PUBLIC "-//W3C//DTD SVG 1.1//EN"
  "http://www.w3.org/Graphics/SVG/1.1/DTD/svg11.dtd">
<svg t="1700121984243" class="icon" viewBox="0 0 1024 1024" version="1.1"
     xmlns="http://www.w3.org/2000/svg" p-id="18146" data-darkreader-inline-fill="" width="200" height="200">
  <path
    d="M512 85.333333a426.666667 426.666667 0 1 0 426.666667 426.666667A426.666667 426.666667 0 0 0 512 85.333333z m0 768a341.333333 341.333333 0 1 1 341.333333-341.333333 341.333333 341.333333 0 0 1-341.333333 341.333333z m149.333333-384H554.666667V362.666667a21.333333 21.333333 0 0 0-21.333334-21.333334h-42.666666a21.333333 21.333333 0 0 0-21.333334 21.333334V469.333333H362.666667a21.333333 21.333333 0 0 0-21.333334 21.333334v42.666666a21.333333 21.333333 0 0 0 21.333334 21.333334H469.333333v106.666666a21.333333 21.333333 0 0 0 21.333334 21.333334h42.666666a21.333333 21.333333 0 0 0 21.333334-21.333334V554.666667h106.666666a21.333333 21.333333 0 0 0 21.333334-21.333334v-42.666666a21.333333 21.333333 0 0 0-21.333334-21.333334z"
    p-id="18147"></path>
</svg>
